<svg width="49" height="57" viewBox="0 0 49 57" fill="none" xmlns="http://www.w3.org/2000/svg">
<path d="M38.8378 32.4026L21.3667 39.7345V41.5084L37.3032 39.8528L38.8378 32.4026Z" fill="#014064"/>
<path d="M20.4223 44.7012L7.67314 34.1764L14.5199 28.6183V17.0291L0 28.1452V40.3257L20.4223 57V44.7012Z" fill="#009091"/>
<path d="M20.4223 44.7014L7.67314 34.1765L0 40.3259L20.4223 57.0002V44.7014Z" fill="#03726E"/>
<path d="M20.4223 44.7014L7.67314 34.1765L0 40.3259L20.4223 56.8819V44.7014Z" fill="#03736F"/>
<path d="M20.4223 44.7014L7.67314 34.1765L0 40.3259L20.4223 56.8819V44.7014Z" fill="#037470"/>
<path d="M20.4223 44.7014L7.67314 34.1765L0 40.3259L20.4223 56.8819V44.7014Z" fill="#037571"/>
<path d="M20.4223 44.7014L7.67314 34.1765L0 40.3259L20.4223 56.8819V44.7014Z" fill="#037572"/>
<path d="M20.4223 44.7014L7.67314 34.1765L0 40.2076L20.4223 56.8819V44.7014Z" fill="#037673"/>
<path d="M20.4223 44.7014L7.67314 34.1765L0 40.2076L20.4223 56.8819V44.7014Z" fill="#027774"/>
<path d="M20.4223 44.7014L7.67314 34.1765L0 40.2076L20.4223 56.8819V44.7014Z" fill="#027875"/>
<path d="M20.4223 44.7014L7.67314 34.1765L0 40.2076L20.4223 56.7637V44.7014Z" fill="#027976"/>
<path d="M20.4223 44.7014L7.67314 34.1765L0 40.2076L20.4223 56.7637V44.7014Z" fill="#027A77"/>
<path d="M20.4223 44.7014L7.55509 34.1765L0 40.2076L20.4223 56.7637V44.7014Z" fill="#027A78"/>
<path d="M20.4223 44.7014L7.55509 34.1765L0 40.2076L20.4223 56.7637V44.7014Z" fill="#027B79"/>
<path d="M20.4223 44.5832L7.55509 34.1765L0 40.0894L20.4223 56.7637V44.5832Z" fill="#027C7A"/>
<path d="M20.4223 44.5832L7.55509 34.1765L0 40.0894L20.4223 56.7637V44.5832Z" fill="#027D7B"/>
<path d="M20.4223 44.5832L7.55509 34.1765L0 40.0894L20.4223 56.7637V44.5832Z" fill="#027E7C"/>
<path d="M20.4223 44.5832L7.55509 34.1765L0 40.0894L20.4223 56.7637V44.5832Z" fill="#027F7D"/>
<path d="M20.4223 44.583L7.55509 34.0581L0 40.0892L20.4223 56.6453V44.583Z" fill="#027F7E"/>
<path d="M20.4223 44.583L7.55509 34.0581L0 40.0892L20.4223 56.6453V44.583Z" fill="#02807F"/>
<path d="M20.4223 44.583L7.55509 34.0581L0 40.0892L20.4223 56.6453V44.583Z" fill="#028180"/>
<path d="M20.4223 44.583L7.55509 34.0581L0 40.0892L20.4223 56.6453V44.583Z" fill="#018280"/>
<path d="M20.4223 44.583L7.55509 34.0581L0 39.971L20.4223 56.6453V44.583Z" fill="#018381"/>
<path d="M20.4223 44.583L7.43704 34.0581L0 39.971L20.4223 56.6453V44.583Z" fill="#018382"/>
<path d="M20.4223 44.583L7.43704 34.0581L0 39.971L20.4223 56.6453V44.583Z" fill="#018483"/>
<path d="M20.4223 44.583L7.43704 34.0581L0 39.971L20.4223 56.527V44.583Z" fill="#018584"/>
<path d="M20.4223 44.583L7.43704 34.0581L0 39.971L20.4223 56.527V44.583Z" fill="#018685"/>
<path d="M20.4223 44.583L7.43704 34.0581L0 39.971L20.4223 56.527V44.583Z" fill="#018786"/>
<path d="M20.4223 44.583L7.43704 34.0581L0 39.971L20.4223 56.527V44.583Z" fill="#018887"/>
<path d="M20.4223 44.583L7.43704 34.0581L0 39.8527L20.4223 56.527V44.583Z" fill="#018888"/>
<path d="M20.4223 44.583L7.43704 34.0581L0 39.8527L20.4223 56.527V44.583Z" fill="#018989"/>
<path d="M20.4223 44.583L7.43704 34.0581L0 39.8527L20.4223 56.527V44.583Z" fill="#018A8A"/>
<path d="M20.4223 44.583L7.43704 34.0581L0 39.8527L20.4223 56.527V44.583Z" fill="#018B8B"/>
<path d="M20.4223 44.5831L7.31899 33.9399L0 39.8528L20.4223 56.4088V44.5831Z" fill="#008C8C"/>
<path d="M20.4223 44.5831L7.31899 33.9399L0 39.8528L20.4223 56.4088V44.5831Z" fill="#008D8D"/>
<path d="M20.4223 44.5831L7.31899 33.9399L0 39.8528L20.4223 56.4088V44.5831Z" fill="#008D8E"/>
<path d="M20.4223 44.5831L7.31899 33.9399L0 39.8528L20.4223 56.4088V44.5831Z" fill="#008E8F"/>
<path d="M20.4223 44.5831L7.31899 33.9399L0 39.7345L20.4223 56.4088V44.5831Z" fill="#008F90"/>
<path d="M20.4223 44.5831L7.31899 33.9399L0 39.7345L20.4223 56.4088V44.5831Z" fill="#009091"/>
<path d="M14.5199 28.6183V17.0291L0 28.1452V40.3257L14.5199 28.6183Z" fill="#00DFCB"/>
<path d="M14.5199 28.6183V17.0291L0 28.1452V40.3257L14.5199 28.6183Z" fill="#30F9DF"/>
<path d="M14.402 28.6183V17.2656L0.118164 28.2635V40.2075L14.402 28.6183Z" fill="url(#paint0_radial)"/>
<path d="M14.284 28.5L14.1659 17.6204L0.118164 28.3818L0.236212 39.971L14.284 28.5Z" fill="url(#paint1_radial)"/>
<path d="M15.7004 27.9087L28.9218 17.2656L22.075 11.7075V0L36.595 11.1162V23.2967L15.7004 39.971V27.9087Z" fill="url(#paint2_radial)"/>
<path opacity="0.41" d="M36.4769 23.415L20.3043 24.2428L28.9218 17.2656L36.4769 23.415Z" fill="#911808"/>
<path d="M36.477 23.415L22.1931 22.7055L28.9219 17.2656" fill="#701208"/>
<path d="M36.4769 23.415L20.4224 21.6411L28.9218 17.2656L36.4769 23.415Z" fill="url(#paint3_radial)"/>
<path d="M36.4769 23.415L20.6584 21.6411L28.9218 17.2656L36.4769 23.415Z" fill="url(#paint4_radial)"/>
<path d="M36.4769 23.2967L20.8945 21.5229L28.9218 17.2656L36.4769 23.2967Z" fill="url(#paint5_radial)"/>
<path opacity="0.41" d="M25.6165 19.1577L28.9218 17.2656L36.5949 23.2967L25.6165 19.1577Z" fill="#911808"/>
<path d="M27.8594 17.8569L28.9218 17.2656L36.5949 23.2967L27.8594 17.8569Z" fill="#701208"/>
<path d="M36.3589 23.1785L15.7004 39.6162V39.971L36.595 23.2967L36.3589 23.1785Z" fill="#BC1E13"/>
<path d="M22.0751 11.7075V0L36.595 11.1162V23.2967L22.0751 11.7075Z" fill="#FC9568"/>
<path d="M22.1931 11.5892L22.3112 0.591309L36.477 11.471V23.0602L22.1931 11.5892Z" fill="url(#paint6_radial)"/>
<path d="M22.4292 11.5891L22.5472 1.06421L36.3589 11.8256V22.8235L22.4292 11.5891Z" fill="url(#paint7_radial)"/>
<path d="M20.4224 44.7012L7.67322 34.1763L7.55518 34.2945L19.9502 44.7012H20.4224Z" fill="#0AA09A"/>
<path d="M36.4769 30.2739L28.2135 30.3922L16.1726 39.8528H48.7539L36.4769 30.2739Z" fill="#38CAFC"/>
<path d="M36.3588 30.5103L27.8594 30.6285L16.5267 39.4978H48.1637L36.3588 30.5103Z" fill="url(#paint8_radial)"/>
<path d="M32.8174 30.2739L28.3316 30.3922L16.4087 39.7345L32.8174 30.2739Z" fill="#005E91"/>
<path opacity="0.5" d="M11.8048 37.6057L7.67314 34.1763L0 40.3256L11.8048 37.6057Z" fill="#016264"/>
<path opacity="0.5" d="M9.67996 35.8319L7.67314 34.1763L0 40.3256L9.67996 35.8319Z" fill="#016264"/>
<defs>
<radialGradient id="paint0_radial" cx="0" cy="0" r="1" gradientUnits="userSpaceOnUse" gradientTransform="translate(15.2095 18.8073) rotate(-34.8818) scale(43.8252 25.2847)">
<stop offset="0.1129" stop-color="#18ECCF"/>
<stop offset="1" stop-color="#18E4DF"/>
</radialGradient>
<radialGradient id="paint1_radial" cx="0" cy="0" r="1" gradientUnits="userSpaceOnUse" gradientTransform="translate(15.0768 19.1037) rotate(-34.8818) scale(42.8802 24.7395)">
<stop offset="0.1129" stop-color="#01DFBE"/>
<stop offset="1" stop-color="#01D0DF"/>
</radialGradient>
<radialGradient id="paint2_radial" cx="0" cy="0" r="1" gradientUnits="userSpaceOnUse" gradientTransform="translate(26.145 19.979) scale(15.9094 15.9375)">
<stop offset="0.016129" stop-color="#CC1B02"/>
<stop offset="1" stop-color="#ED1E03"/>
</radialGradient>
<radialGradient id="paint3_radial" cx="0" cy="0" r="1" gradientUnits="userSpaceOnUse" gradientTransform="translate(28.4384 20.361) scale(6.1064 6.11721)">
<stop offset="0.0591398" stop-color="#F29442"/>
<stop offset="1" stop-color="#F27E42"/>
</radialGradient>
<radialGradient id="paint4_radial" cx="0" cy="0" r="1" gradientUnits="userSpaceOnUse" gradientTransform="translate(28.5566 20.3197) scale(5.9893 5.9999)">
<stop offset="0.0591398" stop-color="#F27F23"/>
<stop offset="1" stop-color="#F26523"/>
</radialGradient>
<radialGradient id="paint5_radial" cx="0" cy="0" r="1" gradientUnits="userSpaceOnUse" gradientTransform="translate(28.6749 20.2783) scale(5.87219 5.88259)">
<stop offset="0.0591398" stop-color="#F26A03"/>
<stop offset="1" stop-color="#F24C03"/>
</radialGradient>
<radialGradient id="paint6_radial" cx="0" cy="0" r="1" gradientUnits="userSpaceOnUse" gradientTransform="translate(22.2988 7.70263) rotate(17.4983) scale(14.4056 16.58)">
<stop offset="0.0591398" stop-color="#F78036"/>
<stop offset="1" stop-color="#F77136"/>
</radialGradient>
<radialGradient id="paint7_radial" cx="0" cy="0" r="1" gradientUnits="userSpaceOnUse" gradientTransform="translate(22.496 7.98402) rotate(17.4982) scale(13.9972 16.11)">
<stop offset="0.0591398" stop-color="#F26A03"/>
<stop offset="1" stop-color="#F24C03"/>
</radialGradient>
<radialGradient id="paint8_radial" cx="0" cy="0" r="1" gradientUnits="userSpaceOnUse" gradientTransform="translate(33.194 30.3023) scale(47.5448 24.6575)">
<stop offset="0.1129" stop-color="#01B3DF"/>
<stop offset="1" stop-color="#0183DF"/>
</radialGradient>
</defs>
</svg>
