<svg width="30" height="30" viewBox="0 0 30 30" fill="none" xmlns="http://www.w3.org/2000/svg">
<mask id="mask0" mask-type="alpha" maskUnits="userSpaceOnUse" x="7" y="7" width="16" height="16">
<path fill-rule="evenodd" clip-rule="evenodd" d="M7 11H11V7H7V11ZM13 23H17V19H13V23ZM7 23H11V19H7V23ZM7 17H11V13H7V17ZM13 17H17V13H13V17ZM19 7V11H23V7H19ZM13 11H17V7H13V11ZM19 17H23V13H19V17ZM19 23H23V19H19V23Z" fill="white"/>
</mask>
<g mask="url(#mask0)">
<rect x="2" y="2" width="26" height="26" fill="#D8D8D8"/>
</g>
</svg>
