<svg width="30" height="30" viewBox="0 0 30 30" fill="none" xmlns="http://www.w3.org/2000/svg">
<mask id="mask0" mask-type="alpha" maskUnits="userSpaceOnUse" x="6" y="4" width="19" height="22">
<path fill-rule="evenodd" clip-rule="evenodd" d="M20 4H8C6.9 4 6 4.9 6 6V20H8V6H20V4ZM23 8H12C10.9 8 10 8.9 10 10V24C10 25.1 10.9 26 12 26H23C24.1 26 25 25.1 25 24V10C25 8.9 24.1 8 23 8ZM23 24H12V10H23V24Z" fill="white"/>
</mask>
<g mask="url(#mask0)">
<rect x="2" y="2" width="26" height="26" fill="#D8D8D8"/>
</g>
</svg>
