<svg width="30" height="30" viewBox="0 0 30 30" fill="none" xmlns="http://www.w3.org/2000/svg">
<mask id="mask0" mask-type="alpha" maskUnits="userSpaceOnUse" x="13" y="7" width="4" height="16">
<path fill-rule="evenodd" clip-rule="evenodd" d="M15 11C16.1 11 17 10.1 17 9C17 7.9 16.1 7 15 7C13.9 7 13 7.9 13 9C13 10.1 13.9 11 15 11ZM15 13C13.9 13 13 13.9 13 15C13 16.1 13.9 17 15 17C16.1 17 17 16.1 17 15C17 13.9 16.1 13 15 13ZM15 19C13.9 19 13 19.9 13 21C13 22.1 13.9 23 15 23C16.1 23 17 22.1 17 21C17 19.9 16.1 19 15 19Z" fill="white"/>
</mask>
<g mask="url(#mask0)">
<rect x="2" y="2" width="26" height="26" fill="#D8D8D8"/>
</g>
</svg>
